PathFileType	4	(X/Y/Z)	 s10c0302.trc
DataRate	CameraRate	NumFrames	NumMarkers	Units	OrigDataRate	OrigDataStartFrame	OrigNumFrames
200	200	4	50	mm	200	1501	2000
Frame#	Time	racr			lacr			c7			jug			rlel			rdr			llel			ldr			s2			lic			ric			lasi			rasi			rpsi			lpsi			rgt			lgt			rth1			rth2			rth3			rth4			rlfc			rmfc			rsh1			rsh2			rsh3			rsh4			rlmal			rmmal			rcal			rtoe			rmt5			lth1			lth2			lth4			lth3			llfc			lmfc			llmal			lmmal			lcal			lmt5			lsh1			lsh2			lsh3			lsh4			ltoe			SBIKE			LBIKE			RBIKE			
		X1	Y1	Z1	X2	Y2	Z2	X3	Y3	Z3	X4	Y4	Z4	X5	Y5	Z5	X6	Y6	Z6	X7	Y7	Z7	X8	Y8	Z8	X9	Y9	Z9	X10	Y10	Z10	X11	Y11	Z11	X12	Y12	Z12	X13	Y13	Z13	X14	Y14	Z14	X15	Y15	Z15	X16	Y16	Z16	X17	Y17	Z17	X18	Y18	Z18	X19	Y19	Z19	X20	Y20	Z20	X21	Y21	Z21	X22	Y22	Z22	X23	Y23	Z23	X24	Y24	Z24	X25	Y25	Z25	X26	Y26	Z26	X27	Y27	Z27	X28	Y28	Z28	X29	Y29	Z29	X30	Y30	Z30	X31	Y31	Z31	X32	Y32	Z32	X33	Y33	Z33	X34	Y34	Z34	X35	Y35	Z35	X36	Y36	Z36	X37	Y37	Z37	X38	Y38	Z38	X39	Y39	Z39	X40	Y40	Z40	X41	Y41	Z41	X42	Y42	Z42	X43	Y43	Z43	X44	Y44	Z44	X45	Y45	Z45	X46	Y46	Z46	X47	Y47	Z47	X48	Y48	Z48	X49	Y49	Z49	X50	Y50	Z50	
1501	7.5050	696.903243	1283.622613	-2.026132	697.454659	1317.415942	-331.504048	696.120170	1327.315127	-160.069044	678.073533	1183.666498	-175.155507	567.774959	1053.219845	100.863484	640.819912	873.362315	-9.601125	598.726317	1074.895866	-457.342503	669.158852	881.159770	-371.029645	161.227811	1168.547938	-173.224772	322.191460	1170.287812	-325.881732	340.661262	1130.340270	-41.749253	340.793537	1069.685826	-305.342687	319.147561	1056.768823	-49.563829	211.135838	1210.691272	-106.971023	218.948901	1223.021023	-218.056808	200.722548	1056.462105	8.221041	227.704636	1046.673642	-370.937189	269.609098	917.884093	22.243087	337.958699	862.784758	7.066476	367.504016	783.423500	-5.072772	366.893144	886.674547	2.133855	439.316465	687.269699	-31.964412	431.660557	686.021209	-145.499111	372.226347	592.814168	-4.348976	346.637566	509.643755	-23.370205	285.778462	448.511997	-24.627175	368.742632	501.244285	-54.120707	230.431424	362.959293	-41.148515	252.868344	378.974850	-123.092499	172.506739	343.617074	-89.625768	413.098963	308.295374	-81.310219	327.710856	286.600575	-21.416801	289.648292	924.084984	-383.818461	350.178099	863.400245	-368.655278	378.809277	881.854050	-354.651136	373.251795	778.120272	-362.740061	413.453288	674.350311	-342.469004	400.204636	661.816441	-225.091771	90.822348	474.398322	-388.386257	94.553608	459.769731	-308.172958	48.730385	510.145891	-342.510993	42.786801	331.012871	-395.837672	308.183452	620.617750	-388.899489	254.033091	553.735643	-382.655015	171.180359	520.449575	-392.166049	270.075055	533.743119	-354.828833	85.401897	258.800750	-333.544375	-204.007040	833.021828	-223.905534	-78.131867	81.979061	-423.605396	-102.547369	80.590658	-24.352422	
1502	7.5100	694.404895	1284.897978	-2.173334	699.633018	1319.403738	-331.510369	695.537983	1328.561588	-160.499348	678.140973	1184.972134	-177.295880	565.139102	1053.899435	96.920378	640.953781	873.047664	-9.988915	601.461219	1075.928387	-457.415575	669.580603	881.141769	-370.856323	161.923337	1167.860350	-169.118541	319.823275	1170.551571	-324.479531	343.648084	1129.112352	-41.232516	337.563814	1068.993261	-303.792945	322.061467	1055.281208	-48.497384	211.131389	1210.410211	-102.631006	218.286611	1222.338808	-214.873664	203.530556	1054.365162	11.815772	226.010342	1046.424669	-367.770473	270.788037	913.488443	23.077026	337.314566	856.270315	6.588431	364.157427	775.954647	-6.731446	366.976071	879.168327	1.361833	431.472767	676.678523	-35.292435	418.678838	674.212519	-148.583444	365.317777	583.686960	-5.901131	341.026254	499.910189	-24.602106	281.337056	437.978873	-25.258088	364.043147	491.722559	-55.220586	226.933280	351.262852	-41.334989	249.047385	367.292069	-123.825192	169.052195	331.819523	-89.711869	410.073975	297.991930	-81.593177	324.880110	275.761475	-21.605286	289.859303	925.262555	-382.191891	351.651122	865.762434	-367.337804	379.885984	884.705694	-353.059232	375.859273	780.487575	-361.303991	419.915369	678.980583	-341.512252	404.494883	666.354204	-223.001796	96.153173	483.611299	-387.801966	99.244866	467.928952	-309.052379	54.806337	519.963963	-342.236873	45.628047	341.014539	-395.697013	316.042588	625.094033	-387.146575	261.018139	558.868549	-381.106069	177.846773	526.734851	-391.394476	275.049192	538.483686	-351.977222	86.870424	267.749696	-333.342752	-203.964280	832.989043	-224.152185	-78.088809	81.958305	-423.608841	-102.545389	80.574491	-24.344936	
1503	7.5150	691.958124	1286.056486	-2.263276	701.790224	1321.135115	-331.472964	694.971899	1329.717313	-160.817384	678.211340	1186.046117	-178.911338	562.677787	1054.440207	93.103298	641.105786	872.967164	-10.626800	604.164023	1076.949865	-457.469971	670.017503	881.131594	-370.638025	162.122186	1167.198613	-165.774799	317.652419	1170.572671	-323.289900	346.693974	1127.940314	-40.885925	334.780936	1068.468911	-302.266332	325.159347	1053.719320	-47.508660	212.140808	1209.253279	-98.850313	217.620293	1221.346491	-211.622975	206.949479	1051.297551	14.381484	224.200835	1045.974216	-364.652238	271.628391	908.233768	23.927674	336.568654	849.526326	5.945369	360.715989	768.376316	-8.541233	366.828734	871.379109	0.200945	423.517251	667.011636	-38.898114	409.597555	664.370571	-150.291820	357.601944	575.795724	-7.345632	334.805014	491.480603	-25.463446	276.043503	428.400826	-25.850837	358.116343	483.417324	-55.700495	222.927180	340.131060	-41.460971	245.334790	355.750900	-124.414901	165.329109	320.543775	-89.779649	406.551339	287.613152	-81.875178	321.375189	265.204624	-21.829846	289.877871	926.319156	-380.495096	352.939857	868.110976	-365.850681	380.769639	887.557247	-351.329142	378.884877	783.320268	-360.393171	426.347818	683.612476	-340.616179	411.508832	671.818744	-221.122975	101.551294	492.786214	-387.228183	104.192843	477.818244	-306.610088	60.774581	529.649639	-341.769594	49.132326	350.976410	-395.518660	323.710597	629.893444	-385.624295	267.607247	563.429890	-378.913040	183.953617	532.917488	-390.299065	281.038813	544.161954	-349.773888	89.271997	277.100480	-333.340612	-203.965066	832.971061	-224.167300	-78.109137	81.936749	-423.590691	-102.540969	80.533168	-24.353519	
1504	7.5200	689.688770	1287.072994	-2.474117	703.969999	1322.685721	-331.407685	694.062362	1330.875036	-161.037374	678.314598	1187.399754	-180.641535	559.884754	1054.692952	89.035371	641.172982	872.599305	-11.005154	606.846744	1078.035070	-457.440062	670.475887	881.233944	-370.607962	162.242574	1165.948352	-161.457274	315.406068	1170.398006	-322.145546	349.936899	1126.008650	-41.445662	331.949211	1067.868677	-300.885087	328.267104	1052.119251	-46.569156	214.060646	1205.840811	-95.983921	217.079915	1220.128006	-207.641196	210.663187	1047.872663	16.982651	222.248499	1045.330372	-361.608886	273.500581	903.407683	24.856613	335.706396	842.228471	5.128427	356.900242	760.511595	-10.693657	366.560368	863.062483	-1.253333	415.433798	658.641684	-42.750849	398.818984	655.712248	-152.729541	349.270766	568.110535	-9.256242	328.058074	483.376062	-26.384803	270.420926	419.170252	-26.602782	351.694703	475.288038	-56.422389	218.458672	329.502364	-41.453960	240.953486	344.748938	-124.933911	162.020783	309.138158	-90.813847	402.451813	277.405491	-82.259463	317.289543	254.892612	-22.066907	289.850859	927.292227	-378.863682	354.136457	870.457217	-364.234452	381.468342	890.443541	-349.482145	381.882711	786.204447	-359.452657	432.843202	688.317072	-339.709929	416.057749	676.373545	-219.533772	107.077129	502.008421	-386.646633	109.179932	487.520463	-305.419010	66.682674	539.222336	-341.248415	53.170258	360.824098	-395.296765	331.125007	634.948779	-384.391854	274.115726	568.923079	-377.399243	190.183469	539.737381	-389.521378	286.800561	550.088510	-347.727808	92.576485	286.412216	-333.146131	-203.968654	832.962249	-224.167211	-78.132528	81.918226	-423.592170	-102.577280	80.547309	-24.359212	
